<svg id="Layer_1" data-name="Layer 1" xmlns="http://www.w3.org/2000/svg" xmlns:xlink="http://www.w3.org/1999/xlink" viewBox="0 0 1872.32 1080.16">
  <defs>
    <style>
      .cls-1 {
        fill: url(#linear-gradient);
      }

      .cls-2, .cls-3 {
        opacity: 0.35;
      }

      .cls-2 {
        fill: url(#linear-gradient-2);
      }

      .cls-3 {
        fill: url(#linear-gradient-3);
      }

      .cls-4, .cls-5, .cls-6 {
        fill-rule: evenodd;
      }

      .cls-4 {
        opacity: 0.64;
        fill: url(#linear-gradient-4);
      }

      .cls-5 {
        fill: #9cbfe3;
        opacity: 0.43;
      }

      .cls-6 {
        fill: #f8f9f9;
        opacity: 0.71;
      }
    </style>
    <linearGradient id="linear-gradient" x1="827.79" y1="-66.07" x2="124.58" y2="1151.93" gradientUnits="userSpaceOnUse">
      <stop offset="0" stop-color="#000046"/>
      <stop offset="0.99" stop-color="#1cb5e0"/>
    </linearGradient>
    <linearGradient id="linear-gradient-2" x1="902.58" y1="-96.84" x2="170.81" y2="1170.62" gradientTransform="matrix(1, 0, 0, -1, 0, 1072)" xlink:href="#linear-gradient"/>
    <linearGradient id="linear-gradient-3" x1="722.28" y1="-41.24" x2="59.66" y2="1106.45" gradientTransform="matrix(1.09, 0, 0, -1, -0.1, 1071.92)" xlink:href="#linear-gradient"/>
    <linearGradient id="linear-gradient-4" x1="1277.77" y1="589.61" x2="1788.15" y2="589.61" gradientUnits="userSpaceOnUse">
      <stop offset="0.01" stop-color="#6acfff"/>
      <stop offset="0.29" stop-color="#1ed5d7"/>
      <stop offset="0.8" stop-color="#1d9ad6"/>
      <stop offset="1" stop-color="#0075be"/>
      <stop offset="1" stop-color="#092e54"/>
    </linearGradient>
  </defs>
  <title>MRF</title>
  <g>
    <path class="cls-1" d="M0,0H942.24s-261.57,322.5,0,589-9.82,491-9.82,491H0Z" transform="translate(0.1 0.08)"/>
    <path class="cls-2" d="M0,1080H1056.45s-293.28-322.5,0-589-11-491-11-491H0Z" transform="translate(0.1 0.08)"/>
    <path class="cls-3" d="M-.1,1079.92l847.66.16s-235.26-322.55.11-589-8.74-491-8.74-491L.1-.08Z" transform="translate(0.1 0.08)"/>
  </g>
  <g>
    <path class="cls-4" d="M1326.86,594.08c41.38,74.71,86.61,89.91,104,170,19.17,88.27-16.66,157.89,0,165,25.65,10.94,80.35-167.07,206-194,75.92-16.28,138.61,31,150,12,17.11-28.52-141.6-106.4-150-239-4.2-66.28,32.39-95.08,10-126-34.94-48.26-131.51,11.6-230-45-65.51-37.65-72.65-92.8-96-87C1279.16,260.42,1247,449.92,1326.86,594.08Z" transform="translate(0.1 0.08)"/>
    <path class="cls-5" d="M1527.9,730.6c-74-42.67-88.39-88.17-168.16-107-87.93-20.7-158.16,13.9-165-2.88-10.49-25.84,168.44-77.42,197.57-202.58,17.59-75.62-28.56-139.13-9.38-150.19,28.81-16.61,103.9,143.43,236.34,154.15,66.2,5.36,95.63-30.73,126.16-7.8,47.64,35.78-13.9,131.29,41,230.75,36.5,66.16,91.51,74.26,85.31,97.5C1860.67,784.11,1670.64,812.94,1527.9,730.6Z" transform="translate(0.1 0.08)"/>
    <path class="cls-6" d="M1715.06,541.08c-41.37,74.71-86.61,89.91-104,170-19.16,88.27,16.66,157.89,0,165-25.65,10.94-80.35-167.07-206-194-75.91-16.28-138.6,31-150,12-17.11-28.52,141.6-106.4,150-239,4.2-66.28-32.39-95.08-10-126,34.94-48.26,131.51,11.6,230-45,65.51-37.65,72.65-92.8,96-87C1762.76,207.42,1794.9,396.92,1715.06,541.08Z" transform="translate(0.1 0.08)"/>
  </g>
</svg>
